<svg width="43" height="43" viewBox="0 0 43 43" fill="none" xmlns="http://www.w3.org/2000/svg">
<path d="M17.4688 18.8125V29.5625C17.4688 29.9189 17.6103 30.2607 17.8623 30.5127C18.1143 30.7647 18.4561 30.9062 18.8125 30.9062C19.1689 30.9062 19.5107 30.7647 19.7627 30.5127C20.0147 30.2607 20.1562 29.9189 20.1562 29.5625V18.8125C20.1562 18.4561 20.0147 18.1143 19.7627 17.8623C19.5107 17.6103 19.1689 17.4688 18.8125 17.4688C18.4561 17.4688 18.1143 17.6103 17.8623 17.8623C17.6103 18.1143 17.4688 18.4561 17.4688 18.8125Z" fill="#DF0202"/>
<path d="M24.1875 17.4688C24.5439 17.4688 24.8857 17.6103 25.1377 17.8623C25.3897 18.1143 25.5312 18.4561 25.5312 18.8125V29.5625C25.5312 29.9189 25.3897 30.2607 25.1377 30.5127C24.8857 30.7647 24.5439 30.9062 24.1875 30.9062C23.8311 30.9062 23.4893 30.7647 23.2373 30.5127C22.9853 30.2607 22.8438 29.9189 22.8438 29.5625V18.8125C22.8438 18.4561 22.9853 18.1143 23.2373 17.8623C23.4893 17.6103 23.8311 17.4688 24.1875 17.4688Z" fill="#DF0202"/>
<path d="M26.875 10.75H34.9375C35.2939 10.75 35.6357 10.8916 35.8877 11.1436C36.1397 11.3956 36.2812 11.7374 36.2812 12.0938C36.2812 12.4501 36.1397 12.7919 35.8877 13.0439C35.6357 13.2959 35.2939 13.4375 34.9375 13.4375H33.4513L31.4303 31.648C31.2478 33.2915 30.4655 34.81 29.2333 35.9128C28.0011 37.0155 26.4055 37.6252 24.7519 37.625H18.2481C16.5945 37.6252 14.9989 37.0155 13.7667 35.9128C12.5345 34.81 11.7522 33.2915 11.5697 31.648L9.546 13.4375H8.0625C7.70612 13.4375 7.36433 13.2959 7.11233 13.0439C6.86032 12.7919 6.71875 12.4501 6.71875 12.0938C6.71875 11.7374 6.86032 11.3956 7.11233 11.1436C7.36433 10.8916 7.70612 10.75 8.0625 10.75H16.125C16.125 9.32446 16.6913 7.95731 17.6993 6.9493C18.7073 5.94129 20.0745 5.375 21.5 5.375C22.9255 5.375 24.2927 5.94129 25.3007 6.9493C26.3087 7.95731 26.875 9.32446 26.875 10.75ZM21.5 8.0625C20.7872 8.0625 20.1037 8.34565 19.5997 8.84965C19.0956 9.35365 18.8125 10.0372 18.8125 10.75H24.1875C24.1875 10.0372 23.9044 9.35365 23.4003 8.84965C22.8963 8.34565 22.2128 8.0625 21.5 8.0625ZM12.2523 13.4375L14.2411 31.3524C14.3508 32.3383 14.8203 33.2491 15.5596 33.9106C16.2989 34.572 17.2561 34.9376 18.2481 34.9375H24.7519C25.7434 34.937 26.7 34.571 27.4387 33.9097C28.1775 33.2483 28.6465 32.3378 28.7563 31.3524L30.7504 13.4375H12.255H12.2523Z" fill="#DF0202"/>
</svg>
