<svg width="42" height="42" viewBox="0 0 42 42" fill="none" xmlns="http://www.w3.org/2000/svg">
<path d="M31.3768 5.20929C30.6669 5.21101 29.9644 5.35327 29.3097 5.62788C28.6551 5.90248 28.0613 6.30398 27.5627 6.80923L6.8081 27.5625L6.72672 27.9733L5.29085 35.192L4.88135 37.1188L6.80941 36.7093L14.0282 35.2734L14.4377 35.1907L35.1922 14.4375C35.6988 13.9397 36.1011 13.346 36.3758 12.691C36.6504 12.036 36.7919 11.3329 36.7919 10.6227C36.7919 9.91247 36.6504 9.20936 36.3758 8.55439C36.1011 7.89942 35.6988 7.30572 35.1922 6.80791C34.6933 6.30275 34.0992 5.9014 33.4444 5.62702C32.7895 5.35264 32.0868 5.21066 31.3768 5.20929ZM31.3768 7.71091C32.0383 7.71091 32.705 8.01279 33.3455 8.6546C34.6226 9.93035 34.6226 11.315 33.3455 12.5921L32.4032 13.4938L28.505 9.59698L29.408 8.6546C30.0499 8.01279 30.7153 7.71091 31.3768 7.71091ZM26.661 11.4437L30.5565 15.3405L14.6844 31.2112C13.8275 29.5347 12.4634 28.1715 10.7863 27.3157L26.661 11.4437ZM9.10629 29.4499C9.88307 29.7624 10.5887 30.2287 11.1807 30.8207C11.7728 31.4128 12.2391 32.1184 12.5516 32.8952L8.24397 33.7562L9.10629 29.4499Z" fill="#0B0086"/>
</svg>
