<svg width="127" height="127" viewBox="0 0 127 127" fill="none" xmlns="http://www.w3.org/2000/svg">
<path d="M63.5 31.75C59.5753 31.75 55.7387 32.9138 52.4754 35.0943C49.2121 37.2747 46.6687 40.3739 45.1668 43.9999C43.6648 47.6258 43.2719 51.6158 44.0376 55.4651C44.8032 59.3144 46.6932 62.8502 49.4684 65.6254C52.2436 68.4006 55.7794 70.2905 59.6287 71.0562C63.478 71.8219 67.4679 71.4289 71.0939 69.927C74.7199 68.4251 77.819 65.8816 79.9995 62.6183C82.18 59.3551 83.3438 55.5185 83.3438 51.5937C83.3438 46.3309 81.2531 41.2835 77.5317 37.5621C73.8102 33.8407 68.7629 31.75 63.5 31.75ZM63.5 63.5C61.1452 63.5 58.8432 62.8017 56.8853 61.4934C54.9273 60.1852 53.4012 58.3257 52.5001 56.1501C51.5989 53.9745 51.3631 51.5805 51.8225 49.271C52.2819 46.9614 53.4159 44.8399 55.081 43.1748C56.7461 41.5096 58.8676 40.3757 61.1772 39.9163C63.4868 39.4569 65.8808 39.6927 68.0563 40.5938C70.2319 41.495 72.0914 43.021 73.3997 44.979C74.708 46.937 75.4063 49.2389 75.4063 51.5937C75.4031 54.7505 74.1477 57.7771 71.9155 60.0093C69.6834 62.2414 66.6568 63.4968 63.5 63.5Z" fill="white"/>
<path d="M63.5 7.9375C52.5108 7.9375 41.7684 11.1962 32.6312 17.3015C23.4939 23.4068 16.3724 32.0844 12.167 42.2372C7.96157 52.3899 6.86125 63.5616 9.00514 74.3397C11.149 85.1178 16.4408 95.0181 24.2114 102.789C31.982 110.559 41.8823 115.851 52.6603 117.995C63.4384 120.139 74.6102 119.038 84.7629 114.833C94.9156 110.628 103.593 103.506 109.699 94.3689C115.804 85.2317 119.063 74.4892 119.063 63.5C119.046 48.7691 113.186 34.6463 102.77 24.2299C92.3537 13.8136 78.231 7.95431 63.5 7.9375ZM39.6875 104.684V99.2188C39.6907 96.062 40.9461 93.0354 43.1783 90.8032C45.4104 88.5711 48.437 87.3157 51.5938 87.3125H75.4063C78.563 87.3157 81.5896 88.5711 83.8218 90.8032C86.054 93.0354 87.3094 96.062 87.3125 99.2188V104.684C80.0861 108.903 71.8682 111.127 63.5 111.127C55.1319 111.127 46.914 108.903 39.6875 104.684ZM95.2183 98.9251C95.1392 93.7194 93.0182 88.7531 89.3124 85.0963C85.6066 81.4395 80.6125 79.3848 75.4063 79.375H51.5938C46.3875 79.3848 41.3934 81.4395 37.6876 85.0963C33.9818 88.7531 31.8609 93.7194 31.7818 98.9251C24.5847 92.4987 19.5093 84.0378 17.2277 74.6628C14.9461 65.2878 15.5659 55.4408 19.0049 46.4259C22.444 37.4109 28.5402 29.6532 36.4862 24.1799C44.4323 18.7066 53.8534 15.7759 63.502 15.7759C73.1507 15.7759 82.5718 18.7066 90.5178 24.1799C98.4638 29.6532 104.56 37.4109 107.999 46.4259C111.438 55.4408 112.058 65.2878 109.776 74.6628C107.495 84.0378 102.419 92.4987 95.2222 98.9251H95.2183Z" fill="white"/>
</svg>
